{"glyphs":{"0":{"ha":1111,"x_min":208,"x_max":903,"o":"m 694 1112 l 417 1112 l 347 1181 l 417 1251 l 694 1251 l 764 1181 l 694 1112 m 277 139 l 208 209 l 208 487 l 277 556 l 347 487 l 347 209 l 277 139 m 834 139 l 764 209 l 764 487 l 834 556 l 903 487 l 903 209 l 834 139 m 277 695 l 208 764 l 208 1042 l 277 1112 l 347 1042 l 347 764 l 277 695 m 834 695 l 764 764 l 764 1042 l 834 1112 l 903 1042 l 903 764 l 834 695 m 694 0 l 417 0 l 347 70 l 417 139 l 694 139 l 764 70 l 694 0 z "},"1":{"ha":1111,"x_min":764,"x_max":903,"o":"m 834 139 l 764 209 l 764 487 l 834 556 l 903 487 l 903 209 l 834 139 m 834 695 l 764 764 l 764 1042 l 834 1112 l 903 1042 l 903 764 l 834 695 z "},"2":{"ha":1111,"x_min":208,"x_max":903,"o":"m 694 1112 l 417 1112 l 347 1181 l 417 1251 l 694 1251 l 764 1181 l 694 1112 m 277 139 l 208 209 l 208 487 l 277 556 l 347 487 l 347 209 l 277 139 m 834 695 l 764 764 l 764 1042 l 834 1112 l 903 1042 l 903 764 l 834 695 m 694 556 l 417 556 l 347 626 l 417 695 l 694 695 l 764 626 l 694 556 m 694 0 l 417 0 l 347 70 l 417 139 l 694 139 l 764 70 l 694 0 z "},"3":{"ha":1111,"x_min":347,"x_max":903,"o":"m 694 1112 l 417 1112 l 347 1181 l 417 1251 l 694 1251 l 764 1181 l 694 1112 m 834 139 l 764 209 l 764 487 l 834 556 l 903 487 l 903 209 l 834 139 m 834 695 l 764 764 l 764 1042 l 834 1112 l 903 1042 l 903 764 l 834 695 m 694 556 l 417 556 l 347 626 l 417 695 l 694 695 l 764 626 l 694 556 m 694 0 l 417 0 l 347 70 l 417 139 l 694 139 l 764 70 l 694 0 z "},"4":{"ha":1111,"x_min":208,"x_max":903,"o":"m 834 139 l 764 209 l 764 487 l 834 556 l 903 487 l 903 209 l 834 139 m 277 695 l 208 764 l 208 1042 l 277 1112 l 347 1042 l 347 764 l 277 695 m 834 695 l 764 764 l 764 1042 l 834 1112 l 903 1042 l 903 764 l 834 695 m 694 556 l 417 556 l 347 626 l 417 695 l 694 695 l 764 626 l 694 556 z "},"5":{"ha":1111,"x_min":208,"x_max":903,"o":"m 694 1112 l 417 1112 l 347 1181 l 417 1251 l 694 1251 l 764 1181 l 694 1112 m 834 139 l 764 209 l 764 487 l 834 556 l 903 487 l 903 209 l 834 139 m 277 695 l 208 764 l 208 1042 l 277 1112 l 347 1042 l 347 764 l 277 695 m 694 556 l 417 556 l 347 626 l 417 695 l 694 695 l 764 626 l 694 556 m 694 0 l 417 0 l 347 70 l 417 139 l 694 139 l 764 70 l 694 0 z "},"6":{"ha":1111,"x_min":208,"x_max":903,"o":"m 694 1112 l 417 1112 l 347 1181 l 417 1251 l 694 1251 l 764 1181 l 694 1112 m 277 139 l 208 209 l 208 487 l 277 556 l 347 487 l 347 209 l 277 139 m 834 139 l 764 209 l 764 487 l 834 556 l 903 487 l 903 209 l 834 139 m 277 695 l 208 764 l 208 1042 l 277 1112 l 347 1042 l 347 764 l 277 695 m 694 556 l 417 556 l 347 626 l 417 695 l 694 695 l 764 626 l 694 556 m 694 0 l 417 0 l 347 70 l 417 139 l 694 139 l 764 70 l 694 0 z "},"7":{"ha":1111,"x_min":347,"x_max":903,"o":"m 694 1112 l 417 1112 l 347 1181 l 417 1251 l 694 1251 l 764 1181 l 694 1112 m 834 139 l 764 209 l 764 487 l 834 556 l 903 487 l 903 209 l 834 139 m 834 695 l 764 764 l 764 1042 l 834 1112 l 903 1042 l 903 764 l 834 695 z "},"8":{"ha":1111,"x_min":208,"x_max":903,"o":"m 694 1112 l 417 1112 l 347 1181 l 417 1251 l 694 1251 l 764 1181 l 694 1112 m 277 139 l 208 209 l 208 487 l 277 556 l 347 487 l 347 209 l 277 139 m 834 139 l 764 209 l 764 487 l 834 556 l 903 487 l 903 209 l 834 139 m 277 695 l 208 764 l 208 1042 l 277 1112 l 347 1042 l 347 764 l 277 695 m 834 695 l 764 764 l 764 1042 l 834 1112 l 903 1042 l 903 764 l 834 695 m 694 556 l 417 556 l 347 626 l 417 695 l 694 695 l 764 626 l 694 556 m 694 0 l 417 0 l 347 70 l 417 139 l 694 139 l 764 70 l 694 0 z "},"9":{"ha":1111,"x_min":208,"x_max":903,"o":"m 694 1112 l 417 1112 l 347 1181 l 417 1251 l 694 1251 l 764 1181 l 694 1112 m 834 139 l 764 209 l 764 487 l 834 556 l 903 487 l 903 209 l 834 139 m 277 695 l 208 764 l 208 1042 l 277 1112 l 347 1042 l 347 764 l 277 695 m 834 695 l 764 764 l 764 1042 l 834 1112 l 903 1042 l 903 764 l 834 695 m 694 556 l 417 556 l 347 626 l 417 695 l 694 695 l 764 626 l 694 556 m 694 0 l 417 0 l 347 70 l 417 139 l 694 139 l 764 70 l 694 0 z "},"\u0000":{"ha":1111,"x_min":208,"x_max":903,"o":"m 694 1112 l 417 1112 l 347 1181 l 417 1251 l 694 1251 l 764 1181 l 694 1112 m 277 139 l 208 209 l 208 487 l 277 556 l 347 487 l 347 209 l 277 139 m 834 139 l 764 209 l 764 487 l 834 556 l 903 487 l 903 209 l 834 139 m 277 695 l 208 764 l 208 1042 l 277 1112 l 347 1042 l 347 764 l 277 695 m 834 695 l 764 764 l 764 1042 l 834 1112 l 903 1042 l 903 764 l 834 695 m 694 556 l 417 556 l 347 626 l 417 695 l 694 695 l 764 626 l 694 556 m 694 0 l 417 0 l 347 70 l 417 139 l 694 139 l 764 70 l 694 0 m 555 239 q 479 271 511 239 q 447 347 447 302 q 479 424 447 393 q 555 456 511 456 q 632 424 601 456 q 664 347 664 393 q 632 271 664 302 q 555 239 601 239 m 555 795 q 479 827 511 795 q 447 904 447 859 q 479 981 447 949 q 555 1013 511 1013 q 632 981 601 1013 q 664 904 664 949 q 632 827 664 859 q 555 795 601 795 z "},"\u001d":{"ha":1111,"x_min":208,"x_max":903,"o":"m 694 1112 l 417 1112 l 347 1181 l 417 1251 l 694 1251 l 764 1181 l 694 1112 m 277 139 l 208 209 l 208 487 l 277 556 l 347 487 l 347 209 l 277 139 m 834 139 l 764 209 l 764 487 l 834 556 l 903 487 l 903 209 l 834 139 m 277 695 l 208 764 l 208 1042 l 277 1112 l 347 1042 l 347 764 l 277 695 m 834 695 l 764 764 l 764 1042 l 834 1112 l 903 1042 l 903 764 l 834 695 m 694 556 l 417 556 l 347 626 l 417 695 l 694 695 l 764 626 l 694 556 m 694 0 l 417 0 l 347 70 l 417 139 l 694 139 l 764 70 l 694 0 m 555 239 q 479 271 511 239 q 447 347 447 302 q 479 424 447 393 q 555 456 511 456 q 632 424 601 456 q 664 347 664 393 q 632 271 664 302 q 555 239 601 239 m 555 795 q 479 827 511 795 q 447 904 447 859 q 479 981 447 949 q 555 1013 511 1013 q 632 981 601 1013 q 664 904 664 949 q 632 827 664 859 q 555 795 601 795 z "}," ":{"ha":1111,"x_min":0,"x_max":0,"o":""}," ":{"ha":1111,"x_min":0,"x_max":0,"o":""},"!":{"ha":1111,"x_min":208,"x_max":347,"o":"m 277 139 l 208 209 l 208 487 l 277 556 l 347 487 l 347 209 l 277 139 m 277 695 l 208 764 l 208 1042 l 277 1112 l 347 1042 l 347 764 l 277 695 z "},"\"":{"ha":1111,"x_min":208,"x_max":903,"o":"m 277 695 l 208 764 l 208 1042 l 277 1112 l 347 1042 l 347 764 l 277 695 m 834 695 l 764 764 l 764 1042 l 834 1112 l 903 1042 l 903 764 l 834 695 z "},"'":{"ha":1111,"x_min":208,"x_max":347,"o":"m 277 695 l 208 764 l 208 1042 l 277 1112 l 347 1042 l 347 764 l 277 695 z "},"(":{"ha":1111,"x_min":208,"x_max":764,"o":"m 694 1112 l 417 1112 l 347 1181 l 417 1251 l 694 1251 l 764 1181 l 694 1112 m 277 139 l 208 209 l 208 487 l 277 556 l 347 487 l 347 209 l 277 139 m 277 695 l 208 764 l 208 1042 l 277 1112 l 347 1042 l 347 764 l 277 695 m 694 0 l 417 0 l 347 70 l 417 139 l 694 139 l 764 70 l 694 0 z "},")":{"ha":1111,"x_min":347,"x_max":903,"o":"m 694 1112 l 417 1112 l 347 1181 l 417 1251 l 694 1251 l 764 1181 l 694 1112 m 834 139 l 764 209 l 764 487 l 834 556 l 903 487 l 903 209 l 834 139 m 834 695 l 764 764 l 764 1042 l 834 1112 l 903 1042 l 903 764 l 834 695 m 694 0 l 417 0 l 347 70 l 417 139 l 694 139 l 764 70 l 694 0 z "},"*":{"ha":1111,"x_min":347,"x_max":764,"o":"m 694 1112 l 417 1112 l 347 1181 l 417 1251 l 694 1251 l 764 1181 l 694 1112 z "},"+":{"ha":1111,"x_min":208,"x_max":764,"o":"m 277 139 l 208 209 l 208 487 l 277 556 l 347 487 l 347 209 l 277 139 m 277 695 l 208 764 l 208 1042 l 277 1112 l 347 1042 l 347 764 l 277 695 m 694 556 l 417 556 l 347 626 l 417 695 l 694 695 l 764 626 l 694 556 z "},",":{"ha":1111,"x_min":376,"x_max":735,"o":"m 647 856 q 539 873 600 856 q 430 922 473 892 q 388 980 388 951 q 417 1018 388 1006 q 447 1047 436 1027 q 470 1116 457 1067 q 608 1245 512 1245 q 720 1180 682 1245 q 735 1115 735 1154 q 725 1044 735 1084 q 709 967 709 988 q 718 935 709 948 q 730 903 730 918 q 728 892 730 898 q 647 856 717 856 m 647 890 q 683 895 671 890 q 695 904 695 899 q 618 959 695 921 q 578 937 608 937 q 526 960 547 937 q 517 981 517 970 l 518 988 q 471 992 492 992 q 434 988 446 991 q 422 979 422 984 q 451 949 422 969 q 549 906 490 924 q 642 890 612 890 l 647 890 m 673 970 q 691 1053 675 1002 q 700 1112 700 1084 q 634 1207 700 1187 q 607 1211 620 1211 q 504 1106 537 1211 q 475 1027 490 1054 q 578 1010 522 1025 q 673 970 633 994 m 612 732 q 505 749 564 732 q 388 804 435 770 l 408 831 q 515 783 450 802 q 612 767 570 767 l 628 768 l 630 733 l 612 732 m 629 795 q 523 812 581 795 q 376 898 410 846 l 406 916 l 409 912 q 532 845 429 879 q 629 830 587 830 q 671 836 656 830 l 675 838 l 689 806 q 629 795 663 795 m 555 70 q 479 102 511 70 q 447 178 447 134 q 479 255 447 224 q 555 287 511 287 q 632 255 601 287 q 664 178 664 224 q 632 102 664 134 q 555 70 601 70 z "},"-":{"ha":1111,"x_min":347,"x_max":764,"o":"m 694 556 l 417 556 l 347 626 l 417 695 l 694 695 l 764 626 l 694 556 z "},"­":{"ha":1111,"x_min":347,"x_max":764,"o":"m 694 556 l 417 556 l 347 626 l 417 695 l 694 695 l 764 626 l 694 556 z "},".":{"ha":1111,"x_min":447,"x_max":664,"o":"m 555 70 q 479 102 511 70 q 447 178 447 134 q 479 255 447 224 q 555 287 511 287 q 632 255 601 287 q 664 178 664 224 q 632 102 664 134 q 555 70 601 70 z "},"/":{"ha":1111,"x_min":208,"x_max":903,"o":"m 277 139 l 208 209 l 208 487 l 277 556 l 347 487 l 347 209 l 277 139 m 834 695 l 764 764 l 764 1042 l 834 1112 l 903 1042 l 903 764 l 834 695 m 694 556 l 417 556 l 347 626 l 417 695 l 694 695 l 764 626 l 694 556 z "},":":{"ha":1111,"x_min":447,"x_max":664,"o":"m 555 239 q 479 271 511 239 q 447 347 447 302 q 479 424 447 393 q 555 456 511 456 q 632 424 601 456 q 664 347 664 393 q 632 271 664 302 q 555 239 601 239 m 555 795 q 479 827 511 795 q 447 904 447 859 q 479 981 447 949 q 555 1013 511 1013 q 632 981 601 1013 q 664 904 664 949 q 632 827 664 859 q 555 795 601 795 z "},";":{"ha":1111,"x_min":447,"x_max":664,"o":"m 555 239 q 479 271 511 239 q 447 347 447 302 q 479 424 447 393 q 555 456 511 456 q 632 424 601 456 q 664 347 664 393 q 632 271 664 302 q 555 239 601 239 m 555 795 q 479 827 511 795 q 447 904 447 859 q 479 981 447 949 q 555 1013 511 1013 q 632 981 601 1013 q 664 904 664 949 q 632 827 664 859 q 555 795 601 795 z "},"<":{"ha":1111,"x_min":208,"x_max":764,"o":"m 277 139 l 208 209 l 208 487 l 277 556 l 347 487 l 347 209 l 277 139 m 694 556 l 417 556 l 347 626 l 417 695 l 694 695 l 764 626 l 694 556 m 694 0 l 417 0 l 347 70 l 417 139 l 694 139 l 764 70 l 694 0 z "},"=":{"ha":1111,"x_min":347,"x_max":764,"o":"m 694 556 l 417 556 l 347 626 l 417 695 l 694 695 l 764 626 l 694 556 m 694 0 l 417 0 l 347 70 l 417 139 l 694 139 l 764 70 l 694 0 z "},">":{"ha":1111,"x_min":347,"x_max":903,"o":"m 834 139 l 764 209 l 764 487 l 834 556 l 903 487 l 903 209 l 834 139 m 694 556 l 417 556 l 347 626 l 417 695 l 694 695 l 764 626 l 694 556 m 694 0 l 417 0 l 347 70 l 417 139 l 694 139 l 764 70 l 694 0 z "},"?":{"ha":1111,"x_min":208,"x_max":903,"o":"m 694 1112 l 417 1112 l 347 1181 l 417 1251 l 694 1251 l 764 1181 l 694 1112 m 277 139 l 208 209 l 208 487 l 277 556 l 347 487 l 347 209 l 277 139 m 834 695 l 764 764 l 764 1042 l 834 1112 l 903 1042 l 903 764 l 834 695 m 694 556 l 417 556 l 347 626 l 417 695 l 694 695 l 764 626 l 694 556 z "},"@":{"ha":1111,"x_min":208,"x_max":903,"o":"m 694 1112 l 417 1112 l 347 1181 l 417 1251 l 694 1251 l 764 1181 l 694 1112 m 277 139 l 208 209 l 208 487 l 277 556 l 347 487 l 347 209 l 277 139 m 277 695 l 208 764 l 208 1042 l 277 1112 l 347 1042 l 347 764 l 277 695 m 834 695 l 764 764 l 764 1042 l 834 1112 l 903 1042 l 903 764 l 834 695 m 694 0 l 417 0 l 347 70 l 417 139 l 694 139 l 764 70 l 694 0 z "},"A":{"ha":1111,"x_min":208,"x_max":903,"o":"m 694 1112 l 417 1112 l 347 1181 l 417 1251 l 694 1251 l 764 1181 l 694 1112 m 277 139 l 208 209 l 208 487 l 277 556 l 347 487 l 347 209 l 277 139 m 834 139 l 764 209 l 764 487 l 834 556 l 903 487 l 903 209 l 834 139 m 277 695 l 208 764 l 208 1042 l 277 1112 l 347 1042 l 347 764 l 277 695 m 834 695 l 764 764 l 764 1042 l 834 1112 l 903 1042 l 903 764 l 834 695 m 694 556 l 417 556 l 347 626 l 417 695 l 694 695 l 764 626 l 694 556 z "},"B":{"ha":1111,"x_min":208,"x_max":903,"o":"m 277 139 l 208 209 l 208 487 l 277 556 l 347 487 l 347 209 l 277 139 m 834 139 l 764 209 l 764 487 l 834 556 l 903 487 l 903 209 l 834 139 m 277 695 l 208 764 l 208 1042 l 277 1112 l 347 1042 l 347 764 l 277 695 m 694 556 l 417 556 l 347 626 l 417 695 l 694 695 l 764 626 l 694 556 m 694 0 l 417 0 l 347 70 l 417 139 l 694 139 l 764 70 l 694 0 z "},"C":{"ha":1111,"x_min":208,"x_max":764,"o":"m 694 1112 l 417 1112 l 347 1181 l 417 1251 l 694 1251 l 764 1181 l 694 1112 m 277 139 l 208 209 l 208 487 l 277 556 l 347 487 l 347 209 l 277 139 m 277 695 l 208 764 l 208 1042 l 277 1112 l 347 1042 l 347 764 l 277 695 m 694 0 l 417 0 l 347 70 l 417 139 l 694 139 l 764 70 l 694 0 z "},"D":{"ha":1111,"x_min":208,"x_max":903,"o":"m 277 139 l 208 209 l 208 487 l 277 556 l 347 487 l 347 209 l 277 139 m 834 139 l 764 209 l 764 487 l 834 556 l 903 487 l 903 209 l 834 139 m 834 695 l 764 764 l 764 1042 l 834 1112 l 903 1042 l 903 764 l 834 695 m 694 556 l 417 556 l 347 626 l 417 695 l 694 695 l 764 626 l 694 556 m 694 0 l 417 0 l 347 70 l 417 139 l 694 139 l 764 70 l 694 0 z "},"E":{"ha":1111,"x_min":208,"x_max":764,"o":"m 694 1112 l 417 1112 l 347 1181 l 417 1251 l 694 1251 l 764 1181 l 694 1112 m 277 139 l 208 209 l 208 487 l 277 556 l 347 487 l 347 209 l 277 139 m 277 695 l 208 764 l 208 1042 l 277 1112 l 347 1042 l 347 764 l 277 695 m 694 556 l 417 556 l 347 626 l 417 695 l 694 695 l 764 626 l 694 556 m 694 0 l 417 0 l 347 70 l 417 139 l 694 139 l 764 70 l 694 0 z "},"F":{"ha":1111,"x_min":208,"x_max":764,"o":"m 694 1112 l 417 1112 l 347 1181 l 417 1251 l 694 1251 l 764 1181 l 694 1112 m 277 139 l 208 209 l 208 487 l 277 556 l 347 487 l 347 209 l 277 139 m 277 695 l 208 764 l 208 1042 l 277 1112 l 347 1042 l 347 764 l 277 695 m 694 556 l 417 556 l 347 626 l 417 695 l 694 695 l 764 626 l 694 556 z "},"G":{"ha":1111,"x_min":208,"x_max":903,"o":"m 694 1112 l 417 1112 l 347 1181 l 417 1251 l 694 1251 l 764 1181 l 694 1112 m 277 139 l 208 209 l 208 487 l 277 556 l 347 487 l 347 209 l 277 139 m 834 139 l 764 209 l 764 487 l 834 556 l 903 487 l 903 209 l 834 139 m 277 695 l 208 764 l 208 1042 l 277 1112 l 347 1042 l 347 764 l 277 695 m 694 0 l 417 0 l 347 70 l 417 139 l 694 139 l 764 70 l 694 0 z "},"H":{"ha":1111,"x_min":208,"x_max":903,"o":"m 277 139 l 208 209 l 208 487 l 277 556 l 347 487 l 347 209 l 277 139 m 834 139 l 764 209 l 764 487 l 834 556 l 903 487 l 903 209 l 834 139 m 277 695 l 208 764 l 208 1042 l 277 1112 l 347 1042 l 347 764 l 277 695 m 694 556 l 417 556 l 347 626 l 417 695 l 694 695 l 764 626 l 694 556 z "},"I":{"ha":1111,"x_min":764,"x_max":903,"o":"m 834 139 l 764 209 l 764 487 l 834 556 l 903 487 l 903 209 l 834 139 m 834 695 l 764 764 l 764 1042 l 834 1112 l 903 1042 l 903 764 l 834 695 z "},"J":{"ha":1111,"x_min":208,"x_max":903,"o":"m 277 139 l 208 209 l 208 487 l 277 556 l 347 487 l 347 209 l 277 139 m 834 139 l 764 209 l 764 487 l 834 556 l 903 487 l 903 209 l 834 139 m 834 695 l 764 764 l 764 1042 l 834 1112 l 903 1042 l 903 764 l 834 695 m 694 0 l 417 0 l 347 70 l 417 139 l 694 139 l 764 70 l 694 0 z "},"K":{"ha":1111,"x_min":347,"x_max":903,"o":"m 834 139 l 764 209 l 764 487 l 834 556 l 903 487 l 903 209 l 834 139 m 834 695 l 764 764 l 764 1042 l 834 1112 l 903 1042 l 903 764 l 834 695 m 694 556 l 417 556 l 347 626 l 417 695 l 694 695 l 764 626 l 694 556 z "},"L":{"ha":1111,"x_min":208,"x_max":764,"o":"m 277 139 l 208 209 l 208 487 l 277 556 l 347 487 l 347 209 l 277 139 m 277 695 l 208 764 l 208 1042 l 277 1112 l 347 1042 l 347 764 l 277 695 m 694 0 l 417 0 l 347 70 l 417 139 l 694 139 l 764 70 l 694 0 z "},"M":{"ha":1111,"x_min":208,"x_max":903,"o":"m 694 1112 l 417 1112 l 347 1181 l 417 1251 l 694 1251 l 764 1181 l 694 1112 m 277 139 l 208 209 l 208 487 l 277 556 l 347 487 l 347 209 l 277 139 m 277 695 l 208 764 l 208 1042 l 277 1112 l 347 1042 l 347 764 l 277 695 m 834 695 l 764 764 l 764 1042 l 834 1112 l 903 1042 l 903 764 l 834 695 z "},"N":{"ha":1111,"x_min":208,"x_max":903,"o":"m 694 1112 l 417 1112 l 347 1181 l 417 1251 l 694 1251 l 764 1181 l 694 1112 m 277 139 l 208 209 l 208 487 l 277 556 l 347 487 l 347 209 l 277 139 m 834 139 l 764 209 l 764 487 l 834 556 l 903 487 l 903 209 l 834 139 m 277 695 l 208 764 l 208 1042 l 277 1112 l 347 1042 l 347 764 l 277 695 m 834 695 l 764 764 l 764 1042 l 834 1112 l 903 1042 l 903 764 l 834 695 z "},"O":{"ha":1111,"x_min":208,"x_max":903,"o":"m 694 1112 l 417 1112 l 347 1181 l 417 1251 l 694 1251 l 764 1181 l 694 1112 m 277 139 l 208 209 l 208 487 l 277 556 l 347 487 l 347 209 l 277 139 m 834 139 l 764 209 l 764 487 l 834 556 l 903 487 l 903 209 l 834 139 m 277 695 l 208 764 l 208 1042 l 277 1112 l 347 1042 l 347 764 l 277 695 m 834 695 l 764 764 l 764 1042 l 834 1112 l 903 1042 l 903 764 l 834 695 m 694 0 l 417 0 l 347 70 l 417 139 l 694 139 l 764 70 l 694 0 z "},"P":{"ha":1111,"x_min":208,"x_max":903,"o":"m 694 1112 l 417 1112 l 347 1181 l 417 1251 l 694 1251 l 764 1181 l 694 1112 m 277 139 l 208 209 l 208 487 l 277 556 l 347 487 l 347 209 l 277 139 m 277 695 l 208 764 l 208 1042 l 277 1112 l 347 1042 l 347 764 l 277 695 m 834 695 l 764 764 l 764 1042 l 834 1112 l 903 1042 l 903 764 l 834 695 m 694 556 l 417 556 l 347 626 l 417 695 l 694 695 l 764 626 l 694 556 z "},"Q":{"ha":1111,"x_min":208,"x_max":903,"o":"m 694 1112 l 417 1112 l 347 1181 l 417 1251 l 694 1251 l 764 1181 l 694 1112 m 834 139 l 764 209 l 764 487 l 834 556 l 903 487 l 903 209 l 834 139 m 277 695 l 208 764 l 208 1042 l 277 1112 l 347 1042 l 347 764 l 277 695 m 834 695 l 764 764 l 764 1042 l 834 1112 l 903 1042 l 903 764 l 834 695 m 694 556 l 417 556 l 347 626 l 417 695 l 694 695 l 764 626 l 694 556 z "},"R":{"ha":1111,"x_min":208,"x_max":764,"o":"m 694 1112 l 417 1112 l 347 1181 l 417 1251 l 694 1251 l 764 1181 l 694 1112 m 277 139 l 208 209 l 208 487 l 277 556 l 347 487 l 347 209 l 277 139 m 277 695 l 208 764 l 208 1042 l 277 1112 l 347 1042 l 347 764 l 277 695 z "},"S":{"ha":1111,"x_min":208,"x_max":903,"o":"m 694 1112 l 417 1112 l 347 1181 l 417 1251 l 694 1251 l 764 1181 l 694 1112 m 834 139 l 764 209 l 764 487 l 834 556 l 903 487 l 903 209 l 834 139 m 277 695 l 208 764 l 208 1042 l 277 1112 l 347 1042 l 347 764 l 277 695 m 694 556 l 417 556 l 347 626 l 417 695 l 694 695 l 764 626 l 694 556 m 694 0 l 417 0 l 347 70 l 417 139 l 694 139 l 764 70 l 694 0 z "},"T":{"ha":1111,"x_min":208,"x_max":764,"o":"m 277 139 l 208 209 l 208 487 l 277 556 l 347 487 l 347 209 l 277 139 m 277 695 l 208 764 l 208 1042 l 277 1112 l 347 1042 l 347 764 l 277 695 m 694 556 l 417 556 l 347 626 l 417 695 l 694 695 l 764 626 l 694 556 m 694 0 l 417 0 l 347 70 l 417 139 l 694 139 l 764 70 l 694 0 z "},"U":{"ha":1111,"x_min":208,"x_max":903,"o":"m 277 139 l 208 209 l 208 487 l 277 556 l 347 487 l 347 209 l 277 139 m 834 139 l 764 209 l 764 487 l 834 556 l 903 487 l 903 209 l 834 139 m 277 695 l 208 764 l 208 1042 l 277 1112 l 347 1042 l 347 764 l 277 695 m 834 695 l 764 764 l 764 1042 l 834 1112 l 903 1042 l 903 764 l 834 695 m 694 0 l 417 0 l 347 70 l 417 139 l 694 139 l 764 70 l 694 0 z "},"V":{"ha":1111,"x_min":208,"x_max":903,"o":"m 834 139 l 764 209 l 764 487 l 834 556 l 903 487 l 903 209 l 834 139 m 277 695 l 208 764 l 208 1042 l 277 1112 l 347 1042 l 347 764 l 277 695 m 834 695 l 764 764 l 764 1042 l 834 1112 l 903 1042 l 903 764 l 834 695 z "},"W":{"ha":1111,"x_min":208,"x_max":903,"o":"m 277 139 l 208 209 l 208 487 l 277 556 l 347 487 l 347 209 l 277 139 m 834 139 l 764 209 l 764 487 l 834 556 l 903 487 l 903 209 l 834 139 m 277 695 l 208 764 l 208 1042 l 277 1112 l 347 1042 l 347 764 l 277 695 m 694 0 l 417 0 l 347 70 l 417 139 l 694 139 l 764 70 l 694 0 z "},"X":{"ha":1111,"x_min":208,"x_max":903,"o":"m 277 139 l 208 209 l 208 487 l 277 556 l 347 487 l 347 209 l 277 139 m 834 139 l 764 209 l 764 487 l 834 556 l 903 487 l 903 209 l 834 139 m 277 695 l 208 764 l 208 1042 l 277 1112 l 347 1042 l 347 764 l 277 695 m 834 695 l 764 764 l 764 1042 l 834 1112 l 903 1042 l 903 764 l 834 695 m 694 556 l 417 556 l 347 626 l 417 695 l 694 695 l 764 626 l 694 556 z "},"Y":{"ha":1111,"x_min":208,"x_max":903,"o":"m 834 139 l 764 209 l 764 487 l 834 556 l 903 487 l 903 209 l 834 139 m 277 695 l 208 764 l 208 1042 l 277 1112 l 347 1042 l 347 764 l 277 695 m 834 695 l 764 764 l 764 1042 l 834 1112 l 903 1042 l 903 764 l 834 695 m 694 556 l 417 556 l 347 626 l 417 695 l 694 695 l 764 626 l 694 556 m 694 0 l 417 0 l 347 70 l 417 139 l 694 139 l 764 70 l 694 0 z "},"Z":{"ha":1111,"x_min":208,"x_max":903,"o":"m 694 1112 l 417 1112 l 347 1181 l 417 1251 l 694 1251 l 764 1181 l 694 1112 m 277 139 l 208 209 l 208 487 l 277 556 l 347 487 l 347 209 l 277 139 m 834 695 l 764 764 l 764 1042 l 834 1112 l 903 1042 l 903 764 l 834 695 m 694 556 l 417 556 l 347 626 l 417 695 l 694 695 l 764 626 l 694 556 m 694 0 l 417 0 l 347 70 l 417 139 l 694 139 l 764 70 l 694 0 z "},"[":{"ha":1111,"x_min":208,"x_max":764,"o":"m 694 1112 l 417 1112 l 347 1181 l 417 1251 l 694 1251 l 764 1181 l 694 1112 m 277 139 l 208 209 l 208 487 l 277 556 l 347 487 l 347 209 l 277 139 m 277 695 l 208 764 l 208 1042 l 277 1112 l 347 1042 l 347 764 l 277 695 m 694 0 l 417 0 l 347 70 l 417 139 l 694 139 l 764 70 l 694 0 z "},"\\":{"ha":1111,"x_min":208,"x_max":903,"o":"m 834 139 l 764 209 l 764 487 l 834 556 l 903 487 l 903 209 l 834 139 m 277 695 l 208 764 l 208 1042 l 277 1112 l 347 1042 l 347 764 l 277 695 m 694 556 l 417 556 l 347 626 l 417 695 l 694 695 l 764 626 l 694 556 z "},"]":{"ha":1111,"x_min":347,"x_max":903,"o":"m 694 1112 l 417 1112 l 347 1181 l 417 1251 l 694 1251 l 764 1181 l 694 1112 m 834 139 l 764 209 l 764 487 l 834 556 l 903 487 l 903 209 l 834 139 m 834 695 l 764 764 l 764 1042 l 834 1112 l 903 1042 l 903 764 l 834 695 m 694 0 l 417 0 l 347 70 l 417 139 l 694 139 l 764 70 l 694 0 z "},"^":{"ha":1111,"x_min":208,"x_max":903,"o":"m 694 1112 l 417 1112 l 347 1181 l 417 1251 l 694 1251 l 764 1181 l 694 1112 m 277 695 l 208 764 l 208 1042 l 277 1112 l 347 1042 l 347 764 l 277 695 m 834 695 l 764 764 l 764 1042 l 834 1112 l 903 1042 l 903 764 l 834 695 z "},"_":{"ha":1111,"x_min":347,"x_max":764,"o":"m 694 0 l 417 0 l 347 70 l 417 139 l 694 139 l 764 70 l 694 0 z "},"a":{"ha":1111,"x_min":208,"x_max":903,"o":"m 694 1112 l 417 1112 l 347 1181 l 417 1251 l 694 1251 l 764 1181 l 694 1112 m 277 139 l 208 209 l 208 487 l 277 556 l 347 487 l 347 209 l 277 139 m 834 139 l 764 209 l 764 487 l 834 556 l 903 487 l 903 209 l 834 139 m 277 695 l 208 764 l 208 1042 l 277 1112 l 347 1042 l 347 764 l 277 695 m 834 695 l 764 764 l 764 1042 l 834 1112 l 903 1042 l 903 764 l 834 695 m 694 556 l 417 556 l 347 626 l 417 695 l 694 695 l 764 626 l 694 556 z "},"b":{"ha":1111,"x_min":208,"x_max":903,"o":"m 277 139 l 208 209 l 208 487 l 277 556 l 347 487 l 347 209 l 277 139 m 834 139 l 764 209 l 764 487 l 834 556 l 903 487 l 903 209 l 834 139 m 277 695 l 208 764 l 208 1042 l 277 1112 l 347 1042 l 347 764 l 277 695 m 694 556 l 417 556 l 347 626 l 417 695 l 694 695 l 764 626 l 694 556 m 694 0 l 417 0 l 347 70 l 417 139 l 694 139 l 764 70 l 694 0 z "},"c":{"ha":1111,"x_min":208,"x_max":764,"o":"m 694 1112 l 417 1112 l 347 1181 l 417 1251 l 694 1251 l 764 1181 l 694 1112 m 277 139 l 208 209 l 208 487 l 277 556 l 347 487 l 347 209 l 277 139 m 277 695 l 208 764 l 208 1042 l 277 1112 l 347 1042 l 347 764 l 277 695 m 694 0 l 417 0 l 347 70 l 417 139 l 694 139 l 764 70 l 694 0 z "},"d":{"ha":1111,"x_min":208,"x_max":903,"o":"m 277 139 l 208 209 l 208 487 l 277 556 l 347 487 l 347 209 l 277 139 m 834 139 l 764 209 l 764 487 l 834 556 l 903 487 l 903 209 l 834 139 m 834 695 l 764 764 l 764 1042 l 834 1112 l 903 1042 l 903 764 l 834 695 m 694 556 l 417 556 l 347 626 l 417 695 l 694 695 l 764 626 l 694 556 m 694 0 l 417 0 l 347 70 l 417 139 l 694 139 l 764 70 l 694 0 z "},"e":{"ha":1111,"x_min":208,"x_max":764,"o":"m 694 1112 l 417 1112 l 347 1181 l 417 1251 l 694 1251 l 764 1181 l 694 1112 m 277 139 l 208 209 l 208 487 l 277 556 l 347 487 l 347 209 l 277 139 m 277 695 l 208 764 l 208 1042 l 277 1112 l 347 1042 l 347 764 l 277 695 m 694 556 l 417 556 l 347 626 l 417 695 l 694 695 l 764 626 l 694 556 m 694 0 l 417 0 l 347 70 l 417 139 l 694 139 l 764 70 l 694 0 z "},"f":{"ha":1111,"x_min":208,"x_max":764,"o":"m 694 1112 l 417 1112 l 347 1181 l 417 1251 l 694 1251 l 764 1181 l 694 1112 m 277 139 l 208 209 l 208 487 l 277 556 l 347 487 l 347 209 l 277 139 m 277 695 l 208 764 l 208 1042 l 277 1112 l 347 1042 l 347 764 l 277 695 m 694 556 l 417 556 l 347 626 l 417 695 l 694 695 l 764 626 l 694 556 z "},"g":{"ha":1111,"x_min":208,"x_max":903,"o":"m 694 1112 l 417 1112 l 347 1181 l 417 1251 l 694 1251 l 764 1181 l 694 1112 m 277 139 l 208 209 l 208 487 l 277 556 l 347 487 l 347 209 l 277 139 m 834 139 l 764 209 l 764 487 l 834 556 l 903 487 l 903 209 l 834 139 m 277 695 l 208 764 l 208 1042 l 277 1112 l 347 1042 l 347 764 l 277 695 m 694 0 l 417 0 l 347 70 l 417 139 l 694 139 l 764 70 l 694 0 z "},"h":{"ha":1111,"x_min":208,"x_max":903,"o":"m 277 139 l 208 209 l 208 487 l 277 556 l 347 487 l 347 209 l 277 139 m 834 139 l 764 209 l 764 487 l 834 556 l 903 487 l 903 209 l 834 139 m 277 695 l 208 764 l 208 1042 l 277 1112 l 347 1042 l 347 764 l 277 695 m 694 556 l 417 556 l 347 626 l 417 695 l 694 695 l 764 626 l 694 556 z "},"i":{"ha":1111,"x_min":764,"x_max":903,"o":"m 834 139 l 764 209 l 764 487 l 834 556 l 903 487 l 903 209 l 834 139 m 834 695 l 764 764 l 764 1042 l 834 1112 l 903 1042 l 903 764 l 834 695 z "},"j":{"ha":1111,"x_min":208,"x_max":903,"o":"m 277 139 l 208 209 l 208 487 l 277 556 l 347 487 l 347 209 l 277 139 m 834 139 l 764 209 l 764 487 l 834 556 l 903 487 l 903 209 l 834 139 m 834 695 l 764 764 l 764 1042 l 834 1112 l 903 1042 l 903 764 l 834 695 m 694 0 l 417 0 l 347 70 l 417 139 l 694 139 l 764 70 l 694 0 z "},"k":{"ha":1111,"x_min":347,"x_max":903,"o":"m 834 139 l 764 209 l 764 487 l 834 556 l 903 487 l 903 209 l 834 139 m 834 695 l 764 764 l 764 1042 l 834 1112 l 903 1042 l 903 764 l 834 695 m 694 556 l 417 556 l 347 626 l 417 695 l 694 695 l 764 626 l 694 556 z "},"l":{"ha":1111,"x_min":208,"x_max":764,"o":"m 277 139 l 208 209 l 208 487 l 277 556 l 347 487 l 347 209 l 277 139 m 277 695 l 208 764 l 208 1042 l 277 1112 l 347 1042 l 347 764 l 277 695 m 694 0 l 417 0 l 347 70 l 417 139 l 694 139 l 764 70 l 694 0 z "},"m":{"ha":1111,"x_min":208,"x_max":903,"o":"m 694 1112 l 417 1112 l 347 1181 l 417 1251 l 694 1251 l 764 1181 l 694 1112 m 277 139 l 208 209 l 208 487 l 277 556 l 347 487 l 347 209 l 277 139 m 277 695 l 208 764 l 208 1042 l 277 1112 l 347 1042 l 347 764 l 277 695 m 834 695 l 764 764 l 764 1042 l 834 1112 l 903 1042 l 903 764 l 834 695 z "},"n":{"ha":1111,"x_min":208,"x_max":903,"o":"m 694 1112 l 417 1112 l 347 1181 l 417 1251 l 694 1251 l 764 1181 l 694 1112 m 277 139 l 208 209 l 208 487 l 277 556 l 347 487 l 347 209 l 277 139 m 834 139 l 764 209 l 764 487 l 834 556 l 903 487 l 903 209 l 834 139 m 277 695 l 208 764 l 208 1042 l 277 1112 l 347 1042 l 347 764 l 277 695 m 834 695 l 764 764 l 764 1042 l 834 1112 l 903 1042 l 903 764 l 834 695 z "},"o":{"ha":1111,"x_min":208,"x_max":903,"o":"m 694 1112 l 417 1112 l 347 1181 l 417 1251 l 694 1251 l 764 1181 l 694 1112 m 277 139 l 208 209 l 208 487 l 277 556 l 347 487 l 347 209 l 277 139 m 834 139 l 764 209 l 764 487 l 834 556 l 903 487 l 903 209 l 834 139 m 277 695 l 208 764 l 208 1042 l 277 1112 l 347 1042 l 347 764 l 277 695 m 834 695 l 764 764 l 764 1042 l 834 1112 l 903 1042 l 903 764 l 834 695 m 694 0 l 417 0 l 347 70 l 417 139 l 694 139 l 764 70 l 694 0 z "},"p":{"ha":1111,"x_min":208,"x_max":903,"o":"m 694 1112 l 417 1112 l 347 1181 l 417 1251 l 694 1251 l 764 1181 l 694 1112 m 277 139 l 208 209 l 208 487 l 277 556 l 347 487 l 347 209 l 277 139 m 277 695 l 208 764 l 208 1042 l 277 1112 l 347 1042 l 347 764 l 277 695 m 834 695 l 764 764 l 764 1042 l 834 1112 l 903 1042 l 903 764 l 834 695 m 694 556 l 417 556 l 347 626 l 417 695 l 694 695 l 764 626 l 694 556 z "},"q":{"ha":1111,"x_min":208,"x_max":903,"o":"m 694 1112 l 417 1112 l 347 1181 l 417 1251 l 694 1251 l 764 1181 l 694 1112 m 834 139 l 764 209 l 764 487 l 834 556 l 903 487 l 903 209 l 834 139 m 277 695 l 208 764 l 208 1042 l 277 1112 l 347 1042 l 347 764 l 277 695 m 834 695 l 764 764 l 764 1042 l 834 1112 l 903 1042 l 903 764 l 834 695 m 694 556 l 417 556 l 347 626 l 417 695 l 694 695 l 764 626 l 694 556 z "},"r":{"ha":1111,"x_min":208,"x_max":764,"o":"m 694 1112 l 417 1112 l 347 1181 l 417 1251 l 694 1251 l 764 1181 l 694 1112 m 277 139 l 208 209 l 208 487 l 277 556 l 347 487 l 347 209 l 277 139 m 277 695 l 208 764 l 208 1042 l 277 1112 l 347 1042 l 347 764 l 277 695 z "},"s":{"ha":1111,"x_min":208,"x_max":903,"o":"m 694 1112 l 417 1112 l 347 1181 l 417 1251 l 694 1251 l 764 1181 l 694 1112 m 834 139 l 764 209 l 764 487 l 834 556 l 903 487 l 903 209 l 834 139 m 277 695 l 208 764 l 208 1042 l 277 1112 l 347 1042 l 347 764 l 277 695 m 694 556 l 417 556 l 347 626 l 417 695 l 694 695 l 764 626 l 694 556 m 694 0 l 417 0 l 347 70 l 417 139 l 694 139 l 764 70 l 694 0 z "},"t":{"ha":1111,"x_min":208,"x_max":764,"o":"m 277 139 l 208 209 l 208 487 l 277 556 l 347 487 l 347 209 l 277 139 m 277 695 l 208 764 l 208 1042 l 277 1112 l 347 1042 l 347 764 l 277 695 m 694 556 l 417 556 l 347 626 l 417 695 l 694 695 l 764 626 l 694 556 m 694 0 l 417 0 l 347 70 l 417 139 l 694 139 l 764 70 l 694 0 z "},"u":{"ha":1111,"x_min":208,"x_max":903,"o":"m 277 139 l 208 209 l 208 487 l 277 556 l 347 487 l 347 209 l 277 139 m 834 139 l 764 209 l 764 487 l 834 556 l 903 487 l 903 209 l 834 139 m 277 695 l 208 764 l 208 1042 l 277 1112 l 347 1042 l 347 764 l 277 695 m 834 695 l 764 764 l 764 1042 l 834 1112 l 903 1042 l 903 764 l 834 695 m 694 0 l 417 0 l 347 70 l 417 139 l 694 139 l 764 70 l 694 0 z "},"v":{"ha":1111,"x_min":208,"x_max":903,"o":"m 834 139 l 764 209 l 764 487 l 834 556 l 903 487 l 903 209 l 834 139 m 277 695 l 208 764 l 208 1042 l 277 1112 l 347 1042 l 347 764 l 277 695 m 834 695 l 764 764 l 764 1042 l 834 1112 l 903 1042 l 903 764 l 834 695 z "},"w":{"ha":1111,"x_min":208,"x_max":903,"o":"m 277 139 l 208 209 l 208 487 l 277 556 l 347 487 l 347 209 l 277 139 m 834 139 l 764 209 l 764 487 l 834 556 l 903 487 l 903 209 l 834 139 m 277 695 l 208 764 l 208 1042 l 277 1112 l 347 1042 l 347 764 l 277 695 m 694 0 l 417 0 l 347 70 l 417 139 l 694 139 l 764 70 l 694 0 z "},"x":{"ha":1111,"x_min":208,"x_max":903,"o":"m 277 139 l 208 209 l 208 487 l 277 556 l 347 487 l 347 209 l 277 139 m 834 139 l 764 209 l 764 487 l 834 556 l 903 487 l 903 209 l 834 139 m 277 695 l 208 764 l 208 1042 l 277 1112 l 347 1042 l 347 764 l 277 695 m 834 695 l 764 764 l 764 1042 l 834 1112 l 903 1042 l 903 764 l 834 695 m 694 556 l 417 556 l 347 626 l 417 695 l 694 695 l 764 626 l 694 556 z "},"y":{"ha":1111,"x_min":208,"x_max":903,"o":"m 834 139 l 764 209 l 764 487 l 834 556 l 903 487 l 903 209 l 834 139 m 277 695 l 208 764 l 208 1042 l 277 1112 l 347 1042 l 347 764 l 277 695 m 834 695 l 764 764 l 764 1042 l 834 1112 l 903 1042 l 903 764 l 834 695 m 694 556 l 417 556 l 347 626 l 417 695 l 694 695 l 764 626 l 694 556 m 694 0 l 417 0 l 347 70 l 417 139 l 694 139 l 764 70 l 694 0 z "},"z":{"ha":1111,"x_min":208,"x_max":903,"o":"m 694 1112 l 417 1112 l 347 1181 l 417 1251 l 694 1251 l 764 1181 l 694 1112 m 277 139 l 208 209 l 208 487 l 277 556 l 347 487 l 347 209 l 277 139 m 834 695 l 764 764 l 764 1042 l 834 1112 l 903 1042 l 903 764 l 834 695 m 694 556 l 417 556 l 347 626 l 417 695 l 694 695 l 764 626 l 694 556 m 694 0 l 417 0 l 347 70 l 417 139 l 694 139 l 764 70 l 694 0 z "},"{":{"ha":1111,"x_min":208,"x_max":764,"o":"m 694 1112 l 417 1112 l 347 1181 l 417 1251 l 694 1251 l 764 1181 l 694 1112 m 277 139 l 208 209 l 208 487 l 277 556 l 347 487 l 347 209 l 277 139 m 277 695 l 208 764 l 208 1042 l 277 1112 l 347 1042 l 347 764 l 277 695 m 694 0 l 417 0 l 347 70 l 417 139 l 694 139 l 764 70 l 694 0 z "},"|":{"ha":1111,"x_min":208,"x_max":347,"o":"m 277 139 l 208 209 l 208 487 l 277 556 l 347 487 l 347 209 l 277 139 m 277 695 l 208 764 l 208 1042 l 277 1112 l 347 1042 l 347 764 l 277 695 z "},"}":{"ha":1111,"x_min":347,"x_max":903,"o":"m 694 1112 l 417 1112 l 347 1181 l 417 1251 l 694 1251 l 764 1181 l 694 1112 m 834 139 l 764 209 l 764 487 l 834 556 l 903 487 l 903 209 l 834 139 m 834 695 l 764 764 l 764 1042 l 834 1112 l 903 1042 l 903 764 l 834 695 m 694 0 l 417 0 l 347 70 l 417 139 l 694 139 l 764 70 l 694 0 z "},"~":{"ha":1111,"x_min":347,"x_max":764,"o":"m 694 556 l 417 556 l 347 626 l 417 695 l 694 695 l 764 626 l 694 556 z "},"¡":{"ha":1111,"x_min":208,"x_max":347,"o":"m 277 139 l 208 209 l 208 487 l 277 556 l 347 487 l 347 209 l 277 139 m 277 695 l 208 764 l 208 1042 l 277 1112 l 347 1042 l 347 764 l 277 695 z "},"¦":{"ha":1111,"x_min":208,"x_max":347,"o":"m 277 139 l 208 209 l 208 487 l 277 556 l 347 487 l 347 209 l 277 139 m 277 695 l 208 764 l 208 1042 l 277 1112 l 347 1042 l 347 764 l 277 695 z "},"¬":{"ha":1111,"x_min":347,"x_max":903,"o":"m 834 139 l 764 209 l 764 487 l 834 556 l 903 487 l 903 209 l 834 139 m 694 556 l 417 556 l 347 626 l 417 695 l 694 695 l 764 626 l 694 556 z "},"°":{"ha":1111,"x_min":208,"x_max":903,"o":"m 694 1112 l 417 1112 l 347 1181 l 417 1251 l 694 1251 l 764 1181 l 694 1112 m 277 695 l 208 764 l 208 1042 l 277 1112 l 347 1042 l 347 764 l 277 695 m 834 695 l 764 764 l 764 1042 l 834 1112 l 903 1042 l 903 764 l 834 695 m 694 556 l 417 556 l 347 626 l 417 695 l 694 695 l 764 626 l 694 556 z "},"¿":{"ha":1111,"x_min":208,"x_max":903,"o":"m 277 139 l 208 209 l 208 487 l 277 556 l 347 487 l 347 209 l 277 139 m 834 695 l 764 764 l 764 1042 l 834 1112 l 903 1042 l 903 764 l 834 695 m 694 556 l 417 556 l 347 626 l 417 695 l 694 695 l 764 626 l 694 556 m 694 0 l 417 0 l 347 70 l 417 139 l 694 139 l 764 70 l 694 0 z "},"–":{"ha":1111,"x_min":347,"x_max":764,"o":"m 694 556 l 417 556 l 347 626 l 417 695 l 694 695 l 764 626 l 694 556 z "},"—":{"ha":1111,"x_min":347,"x_max":764,"o":"m 694 556 l 417 556 l 347 626 l 417 695 l 694 695 l 764 626 l 694 556 z "},"‘":{"ha":1111,"x_min":208,"x_max":347,"o":"m 277 695 l 208 764 l 208 1042 l 277 1112 l 347 1042 l 347 764 l 277 695 z "},"’":{"ha":1111,"x_min":764,"x_max":903,"o":"m 834 695 l 764 764 l 764 1042 l 834 1112 l 903 1042 l 903 764 l 834 695 z "},"‚":{"ha":1111,"x_min":208,"x_max":347,"o":"m 277 139 l 208 209 l 208 487 l 277 556 l 347 487 l 347 209 l 277 139 z "},"“":{"ha":1111,"x_min":208,"x_max":903,"o":"m 277 695 l 208 764 l 208 1042 l 277 1112 l 347 1042 l 347 764 l 277 695 m 834 695 l 764 764 l 764 1042 l 834 1112 l 903 1042 l 903 764 l 834 695 z "},"”":{"ha":1111,"x_min":208,"x_max":903,"o":"m 277 695 l 208 764 l 208 1042 l 277 1112 l 347 1042 l 347 764 l 277 695 m 834 695 l 764 764 l 764 1042 l 834 1112 l 903 1042 l 903 764 l 834 695 z "},"„":{"ha":1111,"x_min":208,"x_max":903,"o":"m 277 139 l 208 209 l 208 487 l 277 556 l 347 487 l 347 209 l 277 139 m 834 139 l 764 209 l 764 487 l 834 556 l 903 487 l 903 209 l 834 139 z "},"‹":{"ha":1111,"x_min":208,"x_max":764,"o":"m 277 139 l 208 209 l 208 487 l 277 556 l 347 487 l 347 209 l 277 139 m 694 556 l 417 556 l 347 626 l 417 695 l 694 695 l 764 626 l 694 556 m 694 0 l 417 0 l 347 70 l 417 139 l 694 139 l 764 70 l 694 0 z "},"›":{"ha":1111,"x_min":347,"x_max":903,"o":"m 834 139 l 764 209 l 764 487 l 834 556 l 903 487 l 903 209 l 834 139 m 694 556 l 417 556 l 347 626 l 417 695 l 694 695 l 764 626 l 694 556 m 694 0 l 417 0 l 347 70 l 417 139 l 694 139 l 764 70 l 694 0 z "},"−":{"ha":1111,"x_min":347,"x_max":764,"o":"m 694 556 l 417 556 l 347 626 l 417 695 l 694 695 l 764 626 l 694 556 z "},"¯":{"ha":1111,"x_min":347,"x_max":764,"o":"m 694 1112 l 417 1112 l 347 1181 l 417 1251 l 694 1251 l 764 1181 l 694 1112 z "},"Ū":{"ha":1111,"x_min":208,"x_max":903,"o":"m 694 1112 l 417 1112 l 347 1181 l 417 1251 l 694 1251 l 764 1181 l 694 1112 m 277 139 l 208 209 l 208 487 l 277 556 l 347 487 l 347 209 l 277 139 m 834 139 l 764 209 l 764 487 l 834 556 l 903 487 l 903 209 l 834 139 m 694 0 l 417 0 l 347 70 l 417 139 l 694 139 l 764 70 l 694 0 z "},"ū":{"ha":1111,"x_min":208,"x_max":903,"o":"m 694 1112 l 417 1112 l 347 1181 l 417 1251 l 694 1251 l 764 1181 l 694 1112 m 277 139 l 208 209 l 208 487 l 277 556 l 347 487 l 347 209 l 277 139 m 834 139 l 764 209 l 764 487 l 834 556 l 903 487 l 903 209 l 834 139 m 694 0 l 417 0 l 347 70 l 417 139 l 694 139 l 764 70 l 694 0 z "},"˂":{"ha":1111,"x_min":208,"x_max":764,"o":"m 694 1112 l 417 1112 l 347 1181 l 417 1251 l 694 1251 l 764 1181 l 694 1112 m 277 695 l 208 764 l 208 1042 l 277 1112 l 347 1042 l 347 764 l 277 695 m 694 556 l 417 556 l 347 626 l 417 695 l 694 695 l 764 626 l 694 556 z "},"˃":{"ha":1111,"x_min":347,"x_max":903,"o":"m 694 1112 l 417 1112 l 347 1181 l 417 1251 l 694 1251 l 764 1181 l 694 1112 m 834 695 l 764 764 l 764 1042 l 834 1112 l 903 1042 l 903 764 l 834 695 m 694 556 l 417 556 l 347 626 l 417 695 l 694 695 l 764 626 l 694 556 z "},"˄":{"ha":1111,"x_min":208,"x_max":903,"o":"m 694 1112 l 417 1112 l 347 1181 l 417 1251 l 694 1251 l 764 1181 l 694 1112 m 277 695 l 208 764 l 208 1042 l 277 1112 l 347 1042 l 347 764 l 277 695 m 834 695 l 764 764 l 764 1042 l 834 1112 l 903 1042 l 903 764 l 834 695 z "},"˅":{"ha":1111,"x_min":208,"x_max":903,"o":"m 277 695 l 208 764 l 208 1042 l 277 1112 l 347 1042 l 347 764 l 277 695 m 834 695 l 764 764 l 764 1042 l 834 1112 l 903 1042 l 903 764 l 834 695 m 694 556 l 417 556 l 347 626 l 417 695 l 694 695 l 764 626 l 694 556 z "},"⏰":{"ha":1111,"x_min":376,"x_max":735,"o":"m 647 856 q 539 873 600 856 q 430 922 473 892 q 388 980 388 951 q 417 1018 388 1006 q 447 1047 436 1027 q 470 1116 457 1067 q 608 1245 512 1245 q 720 1180 682 1245 q 735 1115 735 1154 q 725 1044 735 1084 q 709 967 709 988 q 718 935 709 948 q 730 903 730 918 q 728 892 730 898 q 647 856 717 856 m 647 890 q 683 895 671 890 q 695 904 695 899 q 618 959 695 921 q 578 937 608 937 q 526 960 547 937 q 517 981 517 970 l 518 988 q 471 992 492 992 q 434 988 446 991 q 422 979 422 984 q 451 949 422 969 q 549 906 490 924 q 642 890 612 890 l 647 890 m 673 970 q 691 1053 675 1002 q 700 1112 700 1084 q 634 1207 700 1187 q 607 1211 620 1211 q 504 1106 537 1211 q 475 1027 490 1054 q 578 1010 522 1025 q 673 970 633 994 m 612 732 q 505 749 564 732 q 388 804 435 770 l 408 831 q 515 783 450 802 q 612 767 570 767 l 628 768 l 630 733 l 612 732 m 629 795 q 523 812 581 795 q 376 898 410 846 l 406 916 l 409 912 q 532 845 429 879 q 629 830 587 830 q 671 836 656 830 l 675 838 l 689 806 q 629 795 663 795 m 555 70 q 479 102 511 70 q 447 178 447 134 q 479 255 447 224 q 555 287 511 287 q 632 255 601 287 q 664 178 664 224 q 632 102 664 134 q 555 70 601 70 z "}}}
